<svg id="Capa_1" enable-background="new 0 0 497 497" height="512" viewBox="0 0 497 497" width="512" xmlns="http://www.w3.org/2000/svg"><g><g><path d="m248.5 0c-129.065 0-233.53 104.773-233.53 233.53 0 50.637 6.546 99.842 34.991 140.113 5.077 7.188 13.294 11.509 22.094 11.509l352.891-.001c8.801 0 17.017-4.321 22.094-11.509 28.445-40.27 34.99-89.476 34.99-140.112 0-129.079-104.767-233.53-233.53-233.53z" fill="#ff8f71"/><path d="m176.172 221.554c0-96.553 61.77-178.665 147.942-209.014-23.726-8.124-49.162-12.54-75.614-12.54-129.065 0-233.53 104.773-233.53 233.53 0 50.637 6.546 99.843 34.991 140.113 5.077 7.188 13.294 11.509 22.094 11.509h176.273c-44.338-40.513-72.156-98.805-72.156-163.598z" fill="#ff6f4d"/></g><g><g><path d="m320.878 424.307c-13.352-16.767-32.298-28.817-53.954-33.236-5.957-1.215-12.118-1.853-18.425-1.853-29.236 0-55.353 13.711-72.378 35.089-12.777 16.044-20.435 36.404-20.435 58.538v14.155h92.814 92.813v-14.156c0-7.231-.817-14.272-2.363-21.036-3.187-13.94-9.469-26.699-18.072-37.501z" fill="#c9aaf2"/><path d="m266.924 391.07c-5.957-1.216-12.118-1.853-18.425-1.853-29.236 0-55.353 13.711-72.378 35.089-8.603 10.803-14.885 23.562-18.071 37.502-1.546 6.764-2.363 13.805-2.363 21.036v14.156h36.879v-14.156c0-45.191 32.006-83.12 74.358-91.774z" fill="#b28ae4"/></g><g><path d="m341.313 482.844v14.156h-36.879v-14.156c0-3.417-.183-6.791-.54-10.116 12.051-2.778 23.755-6.44 35.056-10.92 1.547 6.766 2.363 13.803 2.363 21.036z" fill="#fed2a4"/><path d="m155.687 482.844v14.156h36.879v-14.156c0-3.417.183-6.791.54-10.116-12.051-2.778-23.755-6.44-35.056-10.92-1.547 6.766-2.363 13.803-2.363 21.036z" fill="#ffbd86"/></g></g><g><path d="m422.151 191.614h-347.302c-23.149 0-41.916 18.766-41.916 41.916s18.766 41.916 41.916 41.916h347.301c23.149 0 41.916-18.766 41.916-41.916s-18.766-41.916-41.915-41.916z" fill="#ffbd86"/><path d="m277.419 62.29c-9.406-1.577-19.065-2.411-28.919-2.411s-19.512.834-28.918 2.411c-82.138 13.771-144.733 85.19-144.733 171.24s62.595 157.47 144.733 171.24c9.406 1.577 19.064 2.411 28.918 2.411s19.513-.834 28.919-2.411c82.138-13.771 144.732-85.19 144.732-171.24s-62.594-157.469-144.732-171.24z" fill="#fed2a4"/><path d="m132.452 233.772c0-86.203 62.707-157.75 144.967-171.481-9.406-1.577-19.065-2.411-28.919-2.411s-19.512.834-28.918 2.411c-82.138 13.77-144.733 85.189-144.733 171.239s62.595 157.47 144.733 171.24c9.406 1.577 19.064 2.411 28.918 2.411s19.513-.834 28.919-2.411c-82.259-13.731-144.967-84.798-144.967-170.998z" fill="#ffbd86"/></g><g><path d="m394.814 124.229c-34.073-45.627-88.035-73.331-146.314-73.331-59.056 0-112.728 28.348-146.32 73.34-14.515 19.44-22.238 43.116-22.238 67.377 19.846-4.438 39.834-8.07 59.897-10.918 5.92-.84 11.022-4.596 13.614-9.984l9.236-19.2 7.178 14.151c3.294 6.493 10.18 10.346 17.438 9.771 11.031-.874 22.076-1.509 33.128-1.909 6.86-.248 12.974-4.389 15.755-10.665l10.334-23.324 10.285 23.19c2.796 6.304 8.954 10.447 15.847 10.662 16.511.515 33.009 1.557 49.469 3.132 6.435.616 12.699-2.289 16.401-7.587l3.805-5.445 6.043 9.555c2.791 4.413 7.354 7.426 12.519 8.185 18.809 2.765 37.55 6.223 56.166 10.386 0-24.262-7.727-47.946-22.243-67.386z" fill="#ff8f71"/><path d="m256.221 51.08c-2.565-.108-5.137-.182-7.721-.182-59.056 0-112.728 28.348-146.32 73.339-14.515 19.44-22.238 43.116-22.238 67.377 19.846-4.438 39.834-8.071 59.897-10.918 5.92-.84 11.022-4.596 13.615-9.984l9.236-19.2 7.178 14.151c2.331 4.596 6.466 7.859 11.254 9.175 10.597-49.362 37.627-92.62 75.099-123.758z" fill="#ff6f4d"/></g><g><g fill="#ff8e9e"><ellipse cx="153.146" cy="290.386" rx="35.184" ry="28.019"/><ellipse cx="343.854" cy="290.386" rx="35.184" ry="28.019"/></g><g fill="#313d40"><path d="m173.651 241.531c-4.142 0-7.5 3.358-7.5 7.5v14.383c0 4.142 3.358 7.5 7.5 7.5s7.5-3.358 7.5-7.5v-14.383c0-4.142-3.358-7.5-7.5-7.5z"/><path d="m323.349 241.531c-4.142 0-7.5 3.358-7.5 7.5v14.383c0 4.142 3.358 7.5 7.5 7.5s7.5-3.358 7.5-7.5v-14.383c0-4.142-3.358-7.5-7.5-7.5z"/><path d="m273.161 257.333c-3.123-2.722-7.86-2.397-10.582.726-3.555 4.079-8.687 6.417-14.08 6.417-5.394 0-10.525-2.339-14.079-6.417-2.721-3.122-7.459-3.447-10.582-.727-3.123 2.722-3.448 7.459-.727 10.582 6.404 7.348 15.657 11.562 25.388 11.562 9.73 0 18.983-4.214 25.387-11.562 2.723-3.122 2.398-7.86-.725-10.581z"/></g></g></g></svg>